# xmcd
#
# Track frame offsets: 
#        150
#        29865
#        59070
#        78790
#        107115
#        128412
#        151527
#        176535
#        215401
#        238922
#        266760
#        294029
#
# Disc length: 4273 seconds
#
# Revision: 3
# Processed by: cddbd v1.5.2PL0 Copyright (c) Steve Scherf et al.
# Submitted via: ExactAudioCopy v1.0b2
#
DISCID=a210af0c
DTITLE=Various Artist - Vang Bong Du Am
DYEAR=2001
DGENRE=Blues
TTITLE0=Cao Duy - Con Thuyen Khong Ben
TTITLE1=Thanh Lan - Suoi Mo
TTITLE2=Khac Dung - Chieu
TTITLE3=Thu Minh - Giot Mua Thu
TTITLE4=Cao Minh - Thien Thai
TTITLE5=Thuy Duong - Son Nu Ca
TTITLE6=Le Dung - Du Am
TTITLE7=Cam Van - Dem Dong
TTITLE8=Khac Dung - Ao Lua Ha Dong
TTITLE9=Anh Tuyet - Buon Tan Thu
TTITLE10=Thanh Long Bass - Ai Ve Song Tuong
TTITLE11=Anh Tuyet and Cao Minh - Truong Chi
EXTD=
EXTT0=
EXTT1=
EXTT2=
EXTT3=
EXTT4=
EXTT5=
EXTT6=
EXTT7=
EXTT8=
EXTT9=
EXTT10=
EXTT11=
PLAYORDER=
